<?xml version="1.0" standalone="no"?>
<!DOCTYPE svg PUBLIC "-//W3C//DTD SVG 20010904//EN"
 "http://www.w3.org/TR/2001/REC-SVG-20010904/DTD/svg10.dtd">
<svg version="1.0" xmlns="http://www.w3.org/2000/svg"
 width="620.000000pt" height="620.000000pt" viewBox="0 0 620.000000 620.000000"
 preserveAspectRatio="xMidYMid meet">
<metadata>
Created by potrace 1.11, written by Peter Selinger 2001-2013
</metadata>
<g transform="translate(0.000000,620.000000) scale(0.100000,-0.100000)"
fill="#000000" stroke="none">
<path d="M1900 5783 c-68 -37 -427 -225 -664 -347 -60 -31 -115 -61 -123 -67
-7 -6 -13 -8 -13 -4 0 4 -6 3 -12 -2 -15 -12 -168 -93 -543 -288 -72 -37 -166
-87 -210 -110 -44 -23 -117 -61 -162 -85 l-83 -42 0 -2234 0 -2234 927 2 928
3 1 835 c1 459 2 840 3 845 0 6 91 -125 200 -290 110 -165 205 -305 210 -312
6 -7 11 -16 11 -22 0 -5 3 -11 8 -13 4 -2 41 -55 82 -118 41 -63 78 -116 83
-118 4 -2 7 -10 7 -18 0 -8 5 -14 10 -14 6 0 10 -4 10 -10 0 -5 34 -58 75
-117 42 -59 78 -115 82 -123 4 -8 49 -76 100 -152 51 -75 93 -142 93 -148 0
-5 4 -10 8 -10 4 0 21 -22 37 -50 17 -27 33 -50 38 -50 4 0 7 -4 7 -10 0 -5
21 -39 46 -75 l46 -65 70 107 c39 60 74 110 77 113 3 3 12 17 20 33 8 15 18
27 23 27 4 0 8 5 8 11 0 9 55 97 69 109 8 6 29 41 38 60 4 8 11 20 16 25 5 6
193 287 418 625 361 542 409 611 409 580 1 -19 2 -399 3 -844 l2 -810 925 0
925 0 0 2233 0 2234 -80 42 c-44 23 -159 82 -255 132 -96 50 -213 111 -260
135 -47 25 -161 85 -255 133 -93 48 -213 110 -265 138 -52 27 -151 78 -219
113 -68 35 -130 69 -137 75 -8 6 -14 8 -14 4 0 -4 -6 -3 -12 3 -7 5 -85 47
-173 92 -88 46 -164 87 -169 91 -25 22 -46 4 -107 -88 -35 -54 -69 -104 -75
-111 -7 -6 -16 -21 -19 -32 -3 -11 -11 -20 -16 -20 -5 0 -9 -5 -9 -11 0 -9
-94 -153 -110 -169 -3 -3 -11 -17 -19 -32 -8 -15 -22 -37 -33 -47 -10 -11 -18
-23 -18 -26 0 -3 -29 -48 -65 -101 -36 -53 -65 -98 -65 -100 0 -3 -18 -29 -40
-59 -22 -30 -40 -57 -40 -60 0 -3 -18 -30 -40 -60 -22 -30 -40 -57 -40 -60 0
-3 -18 -30 -40 -60 -22 -30 -40 -56 -40 -59 0 -2 -23 -37 -50 -78 -28 -40 -56
-81 -63 -92 -6 -10 -20 -29 -29 -41 -10 -13 -18 -26 -18 -30 0 -3 -18 -30 -40
-60 -22 -30 -40 -56 -40 -59 0 -4 -102 -157 -136 -203 -15 -21 -23 -10 -267
355 -139 208 -254 382 -257 387 -15 30 -365 551 -372 553 -4 2 -8 8 -8 13 0 5
-52 88 -117 184 -73 110 -122 175 -132 174 -9 -1 -36 -12 -61 -26z"/>
</g>
</svg>
